Coordinates
version=1
nRows=38
nColumns=12
inDegrees=yes

Units are S.I. units (second, meters, Newtons, ...)
Angles are in degrees

endheader
time	SC_y	SC_z	SC_x	AC_y	AC_z	AC_x	GH_y	GH_z	GH_yy	EL_x	PS_y
       0.0              -24.01          36.51          69.64          49.66          9.693         -9.367         -121.1          53.18         -48.48          74.79          51.14
   0.03381              -24.01          36.51          69.63          49.66          9.689         -9.367         -121.1          53.18         -48.48          74.78          51.15
   0.06763              -24.01          36.51          69.63          49.66          9.685         -9.368         -121.0          53.18         -48.48          74.78          51.16
    0.1014              -24.01           36.5          69.62          49.66          9.681         -9.368         -121.0          53.19         -48.48          74.78          51.17
    0.1353              -24.01           36.5          69.62          49.66          9.677         -9.369         -120.9          53.19         -48.47          74.77          51.19
    0.1691              -24.01          36.49          69.61          49.67          9.672         -9.369         -120.9           53.2         -48.47          74.77           51.2
    0.2029              -24.02          36.49           69.6          49.67          9.667          -9.37         -120.8           53.2         -48.46          74.77          51.22
    0.2367              -24.02          36.48           69.6          49.67          9.661          -9.37         -120.8          53.21         -48.46          74.76          51.24
    0.2705              -24.02          36.48          69.59          49.67          9.656         -9.371         -120.7          53.21         -48.46          74.76          51.26
    0.3043              -24.02          36.47          69.58          49.67          9.649         -9.371         -120.6          53.22         -48.45          74.75          51.28
    0.3381              -24.02          36.47          69.57          49.67          9.643         -9.372         -120.6          53.23         -48.45          74.75           51.3
    0.3719              -24.02          36.46          69.56          49.67          9.636         -9.373         -120.5          53.23         -48.44          74.74          51.32
    0.4058              -24.03          36.45          69.55          49.67          9.628         -9.374         -120.4          53.24         -48.43          74.74          51.35
    0.4396              -24.03          36.45          69.54          49.68           9.62         -9.375         -120.3          53.25         -48.43          74.73          51.37
    0.4734              -24.03          36.44          69.53          49.68          9.611         -9.376         -120.2          53.26         -48.42          74.73           51.4
    0.5072              -24.04          36.43          69.52          49.68          9.601         -9.377         -120.1          53.27         -48.41          74.72          51.43
     0.541              -24.04          36.42           69.5          49.68           9.59         -9.378         -120.0          53.28         -48.41          74.71          51.47
    0.5748              -24.04          36.41          69.49          49.68          9.579         -9.379         -119.9          53.29          -48.4           74.7           51.5
    0.6086              -24.05           36.4          69.47          49.69          9.566          -9.38         -119.8          53.31         -48.39          74.69          51.55
    0.6425              -24.05          36.38          69.45          49.69          9.552         -9.382         -119.6          53.32         -48.38          74.68          51.59
    0.6763              -24.06          36.37          69.43          49.69          9.537         -9.383         -119.5          53.34         -48.37          74.67          51.64
    0.7101              -24.06          36.35          69.41          49.69           9.52         -9.385         -119.3          53.35         -48.35          74.66          51.69
    0.7439              -24.07          36.34          69.39           49.7          9.502         -9.387         -119.1          53.37         -48.34          74.65          51.75
    0.7777              -24.07          36.32          69.36           49.7          9.481         -9.389         -118.9          53.39         -48.32          74.63          51.82
    0.8115              -24.08          36.29          69.33          49.71          9.458         -9.392         -118.6          53.42         -48.31          74.61          51.89
    0.8453              -24.09          36.27           69.3          49.71          9.433         -9.395         -118.4          53.44         -48.29           74.6          51.98
    0.8791               -24.1          36.24          69.26          49.72          9.405         -9.398         -118.1          53.47         -48.26          74.58          52.07
     0.913              -24.11          36.21          69.22          49.72          9.373         -9.401         -117.7           53.5         -48.24          74.55          52.17
    0.9468              -24.12          36.18          69.17          49.73          9.336         -9.405         -117.3          53.54         -48.21          74.53          52.29
    0.9806              -24.13          36.14          69.11          49.74          9.295         -9.409         -116.9          53.58         -48.18           74.5          52.42
     1.014              -24.15           36.1          69.05          49.75          9.249         -9.414         -116.4          53.63         -48.14          74.46          52.57
     1.048              -24.17          36.05          68.98          49.76          9.195          -9.42         -115.8          53.69          -48.1          74.42          52.75
     1.082              -24.19          35.99           68.9          49.77          9.133         -9.427         -115.2          53.75         -48.06          74.38          52.95
     1.116              -24.21          35.92          68.81          49.78          9.061         -9.434         -114.4          53.82          -48.0          74.33          53.18
      1.15              -24.24          35.84          68.69           49.8          8.976         -9.443         -113.5          53.91         -47.94          74.26          53.46
     1.183              -24.27          35.75          68.56          49.82          8.877         -9.454         -112.5          54.01         -47.86          74.19          53.78
     1.217              -24.31          35.64          68.41          49.84          8.758         -9.467         -111.2          54.13         -47.77           74.1          54.16
     1.251              -24.35          35.51          68.22          49.87          8.617         -9.482         -109.7          54.28         -47.66           74.0          54.62
